<?xml version="1.0" encoding="utf-8"?>
<svg xmlns="http://www.w3.org/2000/svg" width="400" height="300" viewBox="0 0 400 300" fill="none">
<path fill-rule="evenodd" clip-rule="evenodd" d="M40.3635 196.128C39.6261 195.035 39.1915 193.718 39.1915 192.296V68.8743C39.1915 65.0816 42.2599 62.0132 46.0526 62.0132H51.9261C51.9261 62.0132 51.9656 62.0132 51.9788 62.0132H130.283C134.075 62.0132 137.144 65.0816 137.144 68.8743V74.7478C137.144 78.5405 134.075 81.6089 130.283 81.6089H62.6985C60.5387 81.6089 58.7741 83.3604 58.7741 85.5333V175.65C58.7741 177.81 60.5256 179.574 62.6985 179.574H130.283C134.075 179.574 137.144 182.643 137.144 186.436V192.309C137.144 196.102 134.075 199.17 130.283 199.17H46.0395C43.669 199.17 41.5883 197.972 40.3504 196.141L40.3635 196.128ZM0 231.474C0 234.319 1.72516 236.755 4.1878 237.795C5.00429 238.138 5.91296 238.335 6.86114 238.335H130.283C134.075 238.335 137.144 235.267 137.144 231.474V225.601C137.144 221.808 134.075 218.74 130.283 218.74H23.5202C21.3604 218.74 19.5957 216.988 19.5957 214.815V68.8611C19.5957 65.0684 16.5273 62 12.7346 62H6.86114C3.06842 62 0 65.0684 0 68.8611V231.474ZM101.877 140.383C99.717 140.383 97.9524 138.631 97.9524 136.459V108.053C97.9524 104.26 94.8839 101.191 91.0912 101.191H85.2178C81.425 101.191 78.3566 104.26 78.3566 108.053V153.104C78.3566 154.053 78.5542 154.948 78.8966 155.778C79.9369 158.24 82.3732 159.966 85.2178 159.966H130.27C134.062 159.966 137.131 156.897 137.131 153.104V147.231C137.131 143.438 134.062 140.37 130.27 140.37H101.864L101.877 140.383ZM124.409 120.787C120.617 120.787 117.548 117.719 117.548 113.926V108.053C117.548 104.26 120.617 101.191 124.409 101.191H130.283C134.075 101.191 137.144 104.26 137.144 108.053V113.926C137.144 117.719 134.075 120.787 130.283 120.787H124.409Z" fill="#131619"/>
<path d="M176.348 114.176V62.0132H186.04V105.577H206.242V114.176H176.335H176.348ZM240.297 114.176C238.243 114.176 236.597 113.584 235.372 112.412C234.2 111.187 233.463 109.567 233.173 107.565H232.738C232.106 110.067 230.802 111.951 228.84 113.228C226.878 114.453 224.455 115.059 221.571 115.059C217.646 115.059 214.644 114.031 212.537 111.977C210.43 109.923 209.376 107.183 209.376 103.746C209.376 99.7824 210.798 96.8456 213.643 94.9361C216.487 92.9739 220.53 91.9994 225.772 91.9994H232.317V89.2075C232.317 87.0478 231.751 85.3885 230.631 84.2164C229.499 83.0443 227.694 82.4517 225.192 82.4517C222.993 82.4517 221.202 82.939 219.832 83.9267C218.516 84.8617 217.383 85.9811 216.448 87.3112L210.864 82.32C212.287 80.1208 214.17 78.3561 216.527 77.026C218.884 75.6564 221.992 74.9716 225.864 74.9716C231.053 74.9716 235.003 76.1437 237.69 78.501C240.39 80.8583 241.733 84.2296 241.733 88.6412V106.709H245.552V114.203H240.337L240.297 114.176ZM224.731 108.224C226.838 108.224 228.629 107.763 230.091 106.828C231.566 105.893 232.29 104.523 232.29 102.719V97.649H226.272C221.373 97.649 218.924 99.2161 218.924 102.35V103.601C218.924 105.169 219.411 106.341 220.399 107.131C221.426 107.868 222.875 108.237 224.731 108.237V108.224ZM250.925 114.176V75.8276H260.328V82.2147H260.696C261.487 80.1603 262.711 78.4483 264.371 77.0655C266.083 75.6433 268.44 74.9321 271.429 74.9321C275.393 74.9321 278.435 76.2359 280.542 78.8302C282.649 81.4245 283.703 85.1251 283.703 89.9187V114.163H274.3V90.8668C274.3 88.1277 273.813 86.0733 272.825 84.6905C271.851 83.3209 270.231 82.6361 267.979 82.6361C267.004 82.6361 266.043 82.781 265.108 83.0707C264.226 83.3209 263.422 83.7028 262.685 84.2427C262 84.73 261.434 85.3753 260.999 86.1523C260.565 86.8897 260.341 87.7721 260.341 88.7993V114.15H250.938L250.925 114.176ZM315.717 107.789H315.349C314.664 109.988 313.36 111.753 311.45 113.083C309.541 114.4 307.315 115.072 304.76 115.072C299.914 115.072 296.187 113.333 293.593 109.857C291.051 106.38 289.774 101.402 289.774 94.9361C289.774 88.47 291.051 83.5975 293.593 80.1735C296.187 76.6968 299.914 74.9585 304.76 74.9585C307.302 74.9585 309.541 75.6169 311.45 76.947C313.36 78.2244 314.664 79.9628 315.349 82.162H315.717V62.0263H325.12V114.189H315.717V107.789ZM307.789 107.276C310.041 107.276 311.925 106.736 313.452 105.656C314.967 104.576 315.73 103.035 315.73 101.033V88.8388C315.73 86.9819 314.967 85.4806 313.452 84.3613C311.938 83.2287 310.055 82.6756 307.789 82.6756C305.34 82.6756 303.351 83.5053 301.837 85.1777C300.362 86.7976 299.638 88.9705 299.638 91.7228V98.3338C299.638 101.073 300.375 103.259 301.837 104.879C303.351 106.499 305.34 107.302 307.789 107.302V107.276ZM379.338 109.475C378.6 110.107 377.77 110.779 376.835 111.463C375.9 112.096 374.821 112.688 373.609 113.228C372.437 113.768 371.08 114.203 369.566 114.545C368.091 114.887 366.432 115.059 364.575 115.059C361.836 115.059 359.386 114.69 357.227 113.952C355.119 113.215 353.355 112.214 351.932 110.937C350.51 109.659 349.43 108.171 348.706 106.459C347.969 104.694 347.6 102.811 347.6 100.796C347.6 98.9791 347.863 97.3988 348.403 96.016C348.943 94.5937 349.681 93.3163 350.602 92.1969C351.537 91.0249 352.63 89.9977 353.908 89.1153C355.185 88.1803 356.529 87.298 357.951 86.4683C356.436 84.7563 355.08 82.8863 353.908 80.8846C352.775 78.8302 352.222 76.6178 352.222 74.2737C352.222 72.6143 352.565 71.0472 353.249 69.5723C353.934 68.0578 354.909 66.7277 356.186 65.6084C357.503 64.4758 359.07 63.6066 360.888 62.9613C362.705 62.3292 364.733 62 366.985 62C368.987 62 370.857 62.2634 372.569 62.8033C374.281 63.3433 375.756 64.1071 376.98 65.0816C378.258 66.0561 379.232 67.2677 379.917 68.6768C380.654 70.099 381.023 71.7189 381.023 73.523C381.023 75.1428 380.734 76.631 380.141 78.0005C379.601 79.3175 378.837 80.5422 377.863 81.6748C376.888 82.7546 375.756 83.7818 374.478 84.7563C373.201 85.6914 371.831 86.5737 370.369 87.4033L379.338 97.0959C380.022 95.4365 380.536 93.6719 380.878 91.8019C381.273 89.945 381.51 88.075 381.616 86.2181H393.152V94.0801H388.372C387.634 97.4119 386.515 100.454 384.987 103.193L395.127 114.137H383.591L379.324 109.435L379.338 109.475ZM366.708 69.2957C365.141 69.2957 363.837 69.7566 362.81 70.6916C361.783 71.574 361.269 72.7724 361.269 74.2868V74.8004C361.269 75.933 361.612 77.0524 362.297 78.1849C363.034 79.2648 364.153 80.6607 365.681 82.3727C367.538 81.2402 369.066 80.0681 370.238 78.8434C371.462 77.6186 372.068 76.1964 372.068 74.5766V74.142C372.068 72.5749 371.528 71.3765 370.448 70.5468C369.421 69.7171 368.17 69.2957 366.695 69.2957H366.708ZM365.826 107.197C367.591 107.197 369.184 106.933 370.606 106.393C372.029 105.853 373.28 105.116 374.36 104.194L362.679 91.5516C360.967 92.5788 359.623 93.685 358.636 94.8571C357.701 95.9896 357.24 97.4251 357.24 99.1898V99.9931C357.24 102.153 357.977 103.891 359.439 105.208C360.914 106.525 363.034 107.197 365.826 107.197ZM196.26 176.69C192.875 176.69 189.82 176.15 187.081 175.071C184.381 173.938 182.063 172.279 180.101 170.079C178.192 167.88 176.717 165.154 175.689 161.928C174.662 158.649 174.149 154.856 174.149 150.536C174.149 146.217 174.662 142.411 175.689 139.079C176.717 135.695 178.192 132.877 180.101 130.625C182.063 128.32 184.381 126.582 187.081 125.41C189.82 124.238 192.888 123.645 196.26 123.645C200.869 123.645 204.688 124.619 207.717 126.582C210.759 128.544 213.182 131.507 214.986 135.471L206.69 139.883C205.952 137.578 204.754 135.747 203.094 134.378C201.435 132.956 199.157 132.244 196.26 132.244C192.638 132.244 189.741 133.469 187.594 135.919C185.487 138.368 184.434 141.792 184.434 146.204V154.29C184.434 158.741 185.487 162.178 187.594 164.575C189.754 166.919 192.638 168.104 196.26 168.104C199.144 168.104 201.501 167.314 203.318 165.747C205.175 164.18 206.532 162.244 207.361 159.939L215.223 164.575C213.366 168.394 210.891 171.383 207.809 173.543C204.727 175.65 200.882 176.704 196.273 176.704L196.26 176.69ZM248.91 175.808C246.856 175.808 245.209 175.215 243.985 174.043C242.813 172.819 242.075 171.199 241.785 169.197H241.351C240.719 171.699 239.415 173.582 237.453 174.86C235.491 176.085 233.067 176.69 230.183 176.69C226.259 176.69 223.256 175.663 221.149 173.609C219.042 171.554 217.989 168.815 217.989 165.378C217.989 161.414 219.411 158.477 222.256 156.555C225.1 154.593 229.143 153.618 234.384 153.618H240.929V150.826C240.929 148.666 240.363 147.007 239.244 145.835C238.111 144.663 236.307 144.07 233.805 144.07C231.606 144.07 229.815 144.558 228.445 145.545C227.128 146.48 225.996 147.6 225.061 148.93L219.477 143.939C220.899 141.739 222.782 139.975 225.14 138.645C227.497 137.275 230.605 136.59 234.477 136.59C239.665 136.59 243.616 137.762 246.303 140.12C249.002 142.477 250.345 145.848 250.345 150.26V168.328H254.165V175.821H248.95L248.91 175.808ZM233.344 169.869C235.451 169.869 237.242 169.408 238.704 168.473C240.179 167.538 240.903 166.168 240.903 164.364V159.294H234.885C229.986 159.294 227.536 160.861 227.536 163.995V165.246C227.536 166.814 228.024 167.986 229.011 168.776C230.039 169.513 231.487 169.882 233.344 169.882V169.869ZM259.538 137.459H268.94V145.4H269.309C269.559 144.373 269.915 143.399 270.415 142.464C270.955 141.489 271.64 140.633 272.47 139.896C273.299 139.158 274.287 138.579 275.406 138.131C276.578 137.696 277.935 137.473 279.449 137.473H281.504V146.362H278.567C275.38 146.362 272.983 146.823 271.363 147.758C269.744 148.693 268.94 150.207 268.94 152.314V175.821H259.538V137.459ZM286.179 123.645H295.582V143.781H295.871C296.556 141.581 297.86 139.843 299.769 138.566C301.679 137.249 303.905 136.577 306.459 136.577C311.358 136.577 315.085 138.315 317.627 141.792C320.221 145.216 321.525 150.141 321.525 156.555C321.525 162.968 320.221 167.999 317.627 171.475C315.085 174.952 311.358 176.69 306.459 176.69C303.918 176.69 301.679 176.032 299.769 174.702C297.913 173.385 296.609 171.62 295.871 169.408H295.582V175.795H286.179V123.632V123.645ZM303.444 168.907C305.893 168.907 307.882 168.104 309.396 166.484C310.91 164.864 311.674 162.692 311.674 159.939V153.328C311.674 150.589 310.91 148.403 309.396 146.783C307.882 145.124 305.893 144.281 303.444 144.281C301.192 144.281 299.308 144.847 297.781 145.967C296.306 147.099 295.582 148.587 295.582 150.444V162.639C295.582 164.654 296.319 166.195 297.781 167.261C299.295 168.341 301.178 168.881 303.444 168.881V168.907ZM343.241 176.69C340.502 176.69 338.026 176.229 335.827 175.294C333.667 174.359 331.81 173.016 330.243 171.252C328.728 169.487 327.543 167.38 326.714 164.93C325.884 162.428 325.462 159.636 325.462 156.555C325.462 153.473 325.884 150.708 326.714 148.258C327.543 145.809 328.728 143.728 330.243 142.016C331.81 140.251 333.667 138.908 335.827 137.973C338.026 137.038 340.502 136.577 343.241 136.577C345.98 136.577 348.456 137.038 350.668 137.973C352.868 138.908 354.738 140.251 356.252 142.016C357.819 143.728 359.018 145.809 359.847 148.258C360.677 150.708 361.098 153.473 361.098 156.555C361.098 159.636 360.677 162.428 359.847 164.93C359.018 167.38 357.819 169.487 356.252 171.252C354.738 173.016 352.868 174.359 350.668 175.294C348.469 176.229 345.993 176.69 343.241 176.69ZM343.241 169.131C345.743 169.131 347.705 168.367 349.114 166.853C350.537 165.339 351.248 163.1 351.248 160.163V153.039C351.248 150.154 350.537 147.942 349.114 146.428C347.692 144.913 345.73 144.149 343.241 144.149C340.752 144.149 338.856 144.913 337.433 146.428C336.011 147.942 335.3 150.154 335.3 153.039V160.163C335.3 163.1 336.011 165.325 337.433 166.853C338.856 168.367 340.791 169.131 343.241 169.131ZM367.222 175.808V137.459H376.625V143.846H376.993C377.77 141.792 378.995 140.08 380.668 138.697C382.38 137.275 384.737 136.564 387.726 136.564C391.69 136.564 394.732 137.868 396.839 140.462C398.946 143.056 400 146.757 400 151.55V175.795H390.597V152.499C390.597 149.759 390.11 147.705 389.122 146.322C388.148 144.953 386.528 144.268 384.276 144.268C383.301 144.268 382.34 144.413 381.405 144.702C380.523 144.953 379.719 145.335 378.982 145.874C378.297 146.362 377.731 147.007 377.296 147.784C376.862 148.522 376.638 149.404 376.638 150.431V175.782H367.235L367.222 175.808ZM240.297 237.453C238.243 237.453 236.597 236.86 235.372 235.688C234.2 234.464 233.463 232.844 233.173 230.842H232.738C232.106 233.344 230.802 235.227 228.84 236.505C226.878 237.73 224.455 238.335 221.571 238.335C217.646 238.335 214.644 237.308 212.537 235.254C210.43 233.199 209.376 230.46 209.376 227.023C209.376 223.059 210.798 220.122 213.643 218.2C216.487 216.237 220.53 215.263 225.772 215.263H232.317V212.471C232.317 210.311 231.751 208.652 230.631 207.48C229.499 206.308 227.694 205.715 225.192 205.715C222.993 205.715 221.202 206.202 219.832 207.19C218.516 208.125 217.383 209.245 216.448 210.575L210.864 205.584C212.287 203.384 214.17 201.62 216.527 200.29C218.884 198.92 221.992 198.235 225.864 198.235C231.053 198.235 235.003 199.407 237.69 201.764C240.39 204.122 241.733 207.493 241.733 211.905V229.973H245.552V237.466H240.337L240.297 237.453ZM224.731 231.501C226.838 231.501 228.629 231.04 230.091 230.105C231.566 229.17 232.29 227.8 232.29 225.996V220.926H226.272C221.373 220.926 218.924 222.493 218.924 225.627V226.878C218.924 228.445 219.411 229.617 220.399 230.407C221.426 231.145 222.875 231.514 224.731 231.514V231.501ZM250.925 185.303H260.328V205.412H260.617C261.302 203.213 262.606 201.475 264.515 200.197C266.425 198.88 268.651 198.209 271.205 198.209C276.104 198.209 279.831 199.947 282.373 203.424C284.967 206.848 286.271 211.773 286.271 218.186C286.271 224.6 284.967 229.63 282.373 233.107C279.831 236.584 276.104 238.322 271.205 238.322C268.664 238.322 266.425 237.664 264.515 236.334C262.659 235.017 261.355 233.252 260.617 231.04H260.328V237.427H250.925V185.277V185.303ZM268.19 230.539C270.639 230.539 272.628 229.736 274.142 228.116C275.657 226.496 276.42 224.323 276.42 221.571V214.96C276.42 212.221 275.657 210.035 274.142 208.415C272.628 206.756 270.639 205.913 268.19 205.913C265.938 205.913 264.055 206.479 262.527 207.598C261.052 208.731 260.328 210.219 260.328 212.076V224.271C260.328 226.285 261.065 227.826 262.527 228.893C264.041 229.973 265.925 230.513 268.19 230.513V230.539ZM176.348 237.453V185.29H186.04V228.854H206.242V237.453H176.335H176.348Z" fill="#131619"/>
</svg>